HIERARCHY
ROOT Hips
{
	OFFSET 0.000000 89.005402 0.000000
	CHANNELS 6 Xposition Yposition Zposition Xrotation Yrotation Zrotation
	JOINT Spine
	{
		OFFSET 0.116900 10.681000 0.373400
		CHANNELS 3 Xrotation Yrotation Zrotation
		JOINT Spine1
		{
			OFFSET 0.000000 13.840401 0.053500
			CHANNELS 3 Xrotation Yrotation Zrotation
			JOINT Spine2
			{
				OFFSET 0.000000 14.712700 -0.366200
				CHANNELS 3 Xrotation Yrotation Zrotation
				JOINT Neck
				{
					OFFSET 0.000000 35.415497 -3.314200
					CHANNELS 3 Xrotation Yrotation Zrotation
					JOINT Head
					{
						OFFSET 0.000000 16.899200 1.218300
						CHANNELS 3 Xrotation Yrotation Zrotation
						JOINT HeadTop_End
						{
							OFFSET 0.000000 22.206207 2.192500
							CHANNELS 3 Xrotation Yrotation Zrotation
							End Site
							{
								OFFSET 0.000000 22.314178 0.000000
							}
						}
					}
				}
				JOINT LeftShoulder
				{
					OFFSET 12.896400 26.716293 -4.548400
					CHANNELS 3 Xrotation Yrotation Zrotation
					JOINT LeftArm
					{
						OFFSET 19.027000 -4.857010 -1.718400
						CHANNELS 3 Xrotation Yrotation Zrotation
						JOINT LeftForeArm
						{
							OFFSET 24.179897 0.000000 0.000000
							CHANNELS 3 Xrotation Yrotation Zrotation
							JOINT LeftHand
							{
								OFFSET 27.156403 0.000000 0.000000
								CHANNELS 3 Xrotation Yrotation Zrotation
								JOINT LeftHandIndex1
								{
									OFFSET 16.441200 0.000000 0.000000
									CHANNELS 3 Xrotation Yrotation Zrotation
									JOINT LeftHandIndex2
									{
										OFFSET 4.821899 0.000000 0.000000
										CHANNELS 3 Xrotation Yrotation Zrotation
										JOINT LeftHandIndex3
										{
											OFFSET 6.386497 0.000000 0.000000
											CHANNELS 3 Xrotation Yrotation Zrotation
											JOINT LeftHandIndex4
											{
												OFFSET 5.188988 0.000000 0.000000
												CHANNELS 3 Xrotation Yrotation Zrotation
												End Site
												{
													OFFSET -0.178703 5.185913 0.000177
												}
											}
										}
									}
								}
								JOINT LeftHandThumb1
								{
									OFFSET 6.534897 -5.032593 5.900300
									CHANNELS 3 Xrotation Yrotation Zrotation
									JOINT LeftHandThumb2
									{
										OFFSET 3.818176 -2.204422 2.204423
										CHANNELS 3 Xrotation Yrotation Zrotation
										JOINT LeftHandThumb3
										{
											OFFSET 3.252098 -1.877594 1.877601
											CHANNELS 3 Xrotation Yrotation Zrotation
											JOINT LeftHandThumb4
											{
												OFFSET 5.251778 -3.032120 3.032117
												CHANNELS 3 Xrotation Yrotation Zrotation
												End Site
												{
													OFFSET 0.000023 6.780014 0.000000
												}
											}
										}
									}
								}
							}
						}
					}
				}
				JOINT RightShoulder
				{
					OFFSET -12.896300 26.716293 -4.548400
					CHANNELS 3 Xrotation Yrotation Zrotation
					JOINT RightArm
					{
						OFFSET -19.027000 -4.857010 -1.718400
						CHANNELS 3 Xrotation Yrotation Zrotation
						JOINT RightForeArm
						{
							OFFSET -24.179897 0.000000 0.000000
							CHANNELS 3 Xrotation Yrotation Zrotation
							JOINT RightHand
							{
								OFFSET -27.156403 0.000000 0.000000
								CHANNELS 3 Xrotation Yrotation Zrotation
								JOINT RightHandThumb1
								{
									OFFSET -6.591202 -4.852203 5.988100
									CHANNELS 3 Xrotation Yrotation Zrotation
									JOINT RightHandThumb2
									{
										OFFSET -3.818176 -2.204422 2.204423
										CHANNELS 3 Xrotation Yrotation Zrotation
										JOINT RightHandThumb3
										{
											OFFSET -3.252098 -1.877594 1.877601
											CHANNELS 3 Xrotation Yrotation Zrotation
											JOINT RightHandThumb4
											{
												OFFSET -5.251778 -3.032120 3.032117
												CHANNELS 3 Xrotation Yrotation Zrotation
												End Site
												{
													OFFSET -0.000023 6.780014 0.000000
												}
											}
										}
									}
								}
								JOINT RightHandIndex1
								{
									OFFSET -16.029404 0.000000 0.000000
									CHANNELS 3 Xrotation Yrotation Zrotation
									JOINT RightHandIndex2
									{
										OFFSET -5.213303 0.000000 0.000000
										CHANNELS 3 Xrotation Yrotation Zrotation
										JOINT RightHandIndex3
										{
											OFFSET -6.386528 0.000000 0.000000
											CHANNELS 3 Xrotation Yrotation Zrotation
											JOINT RightHandIndex4
											{
												OFFSET -5.189026 0.000000 0.000000
												CHANNELS 3 Xrotation Yrotation Zrotation
												End Site
												{
													OFFSET 0.236702 5.183624 0.001972
												}
											}
										}
									}
								}
							}
						}
					}
				}
			}
		}
	}
	JOINT LeftUpLeg
	{
		OFFSET 14.073000 -7.904099 -1.463000
		CHANNELS 3 Xrotation Yrotation Zrotation
		JOINT LeftLeg
		{
			OFFSET -0.109806 -34.073280 4.093200
			CHANNELS 3 Xrotation Yrotation Zrotation
			JOINT LeftFoot
			{
				OFFSET 0.109806 -29.899420 -6.319000
				CHANNELS 3 Xrotation Yrotation Zrotation
				JOINT LeftToeBase
				{
					OFFSET 1.551100 -14.988700 20.535801
					CHANNELS 3 Xrotation Yrotation Zrotation
					JOINT LeftToe_End
					{
						OFFSET 0.221200 0.570800 13.248301
						CHANNELS 3 Xrotation Yrotation Zrotation
						End Site
						{
							OFFSET 0.000000 13.262435 0.000000
						}
					}
				}
			}
		}
	}
	JOINT RightUpLeg
	{
		OFFSET -13.839300 -7.904099 -1.463000
		CHANNELS 3 Xrotation Yrotation Zrotation
		JOINT RightLeg
		{
			OFFSET 0.109694 -34.073219 4.093300
			CHANNELS 3 Xrotation Yrotation Zrotation
			JOINT RightFoot
			{
				OFFSET -0.109694 -29.899384 -6.319200
				CHANNELS 3 Xrotation Yrotation Zrotation
				JOINT RightToeBase
				{
					OFFSET -1.551100 -14.988700 20.535801
					CHANNELS 3 Xrotation Yrotation Zrotation
					JOINT RightToe_End
					{
						OFFSET -0.221200 0.570900 13.248299
						CHANNELS 3 Xrotation Yrotation Zrotation
						End Site
						{
							OFFSET 0.000000 13.262440 0.000000
						}
					}
				}
			}
		}
	}
}
MOTION
Frames: 4
Frame Time: 0.033333
-0.989469 12.487083 2.468048 -86.969516 -3.558641 0.161250 0.086450 2.010539 -2.589790 -2.897035 0.720629 -0.031628 -2.894851 0.748611 -0.008455 4.266227 0.448769 0.138650 4.838279 3.466264 10.431290 0.000000 -0.000000 0.000000 1.573659 -15.457053 -0.396492 21.346721 -1.021496 -73.123828 -0.000002 -137.603573 0.000010 -17.090831 17.209905 -40.795228 0.237771 3.272952 9.744475 0.772437 2.909413 -29.731861 0.014524 -0.412711 4.030752 0.000000 -0.000000 -0.000000 -7.712680 -16.445188 12.247028 7.558170 31.509548 -3.040782 -10.327322 16.515343 14.878083 -0.000000 -0.000001 0.000003 0.539784 6.712009 0.071431 17.289420 6.526983 66.758235 0.000041 132.974180 -0.000044 -16.833411 -11.637614 48.901832 -19.372329 9.812723 -17.628151 16.805754 -33.149118 6.482047 3.930029 -4.675016 -18.270500 -0.000001 0.000000 -0.000001 -0.578705 -1.290233 19.415301 0.000003 -0.000001 0.000007 0.000371 -0.059106 0.725570 0.000000 -0.000000 0.000000 -23.184384 15.646613 -9.397302 24.085989 -5.956847 -9.280146 0.047233 9.062998 9.271428 -0.273427 -0.000003 0.000002 0.000000 0.000001 0.000000 -4.165158 -10.231821 0.173800 -5.724388 -5.809372 5.319904 18.188806 -3.556912 26.566839 -2.150201 0.000001 -0.000006 0.000000 -0.000000 0.000001 
-0.989626 12.489281 2.480370 -86.981366 -3.557904 0.156715 0.099600 1.992045 -2.569896 -2.908106 0.714841 -0.027830 -2.905894 0.742810 -0.004819 4.289421 0.417265 0.159324 4.902003 3.144050 10.437519 -0.000000 -0.000000 -0.000001 1.567254 -15.430149 -0.436285 21.246529 -0.920176 -73.069241 0.000011 -137.735505 0.000028 -16.844438 17.210089 -41.021990 0.156069 3.473028 7.855085 0.704478 2.787204 -28.364305 0.046291 -0.735805 7.199531 -0.000001 0.000000 0.000000 -7.571285 -16.590256 13.048633 7.558169 31.509548 -3.040776 -10.327323 16.515341 14.878083 -0.000002 -0.000002 0.000002 0.547779 6.787746 0.070857 17.264328 6.476719 66.818573 0.000045 133.004533 -0.000044 -16.818494 -11.692589 48.872572 -19.372329 9.812721 -17.628150 16.805756 -33.149111 6.482053 3.930030 -4.675014 -18.270495 -0.000002 -0.000000 -0.000003 -0.578706 -1.290233 19.415301 0.000001 0.000000 0.000007 0.000372 -0.059105 0.725571 0.000001 -0.000001 -0.000000 -23.201367 15.649031 -9.384049 24.148549 -5.955309 -9.287475 0.017035 9.016353 9.280339 -0.269266 -0.000002 -0.000006 -0.000000 -0.000000 0.000001 -4.107672 -10.229591 0.178113 -5.755350 -5.851411 5.313176 18.109079 -3.547107 26.614800 -2.101347 -0.000001 0.000022 -0.000001 0.000001 -0.000001 
-0.987864 12.490967 2.492401 -86.991065 -3.551746 0.152155 0.115160 1.980449 -2.554343 -2.913409 0.711289 -0.021656 -2.911120 0.739220 0.001226 4.304445 0.385372 0.183406 4.949663 2.824871 10.442731 -0.000000 0.000000 -0.000000 1.561740 -15.399022 -0.463925 21.150611 -0.879871 -73.038286 0.000033 -137.727418 0.000041 -17.172450 17.629126 -42.253985 0.085705 3.667003 6.078268 0.643301 2.670924 -27.079545 0.092381 -1.037368 10.177498 0.000000 -0.000000 -0.000000 -7.437000 -16.726252 13.802316 7.558171 31.509548 -3.040772 -10.327319 16.515338 14.878082 -0.000000 -0.000003 0.000005 0.549122 6.822609 0.070574 17.247319 6.474973 66.857785 -0.000002 133.038179 -0.000010 -16.815239 -11.766761 48.834056 -19.372329 9.812723 -17.628151 16.805757 -33.149121 6.482049 3.930030 -4.675019 -18.270496 -0.000002 -0.000002 0.000002 -0.578706 -1.290233 19.415303 0.000001 -0.000000 0.000006 0.000373 -0.059105 0.725569 0.000000 -0.000001 0.000001 -23.217922 15.652024 -9.373800 24.205610 -5.952495 -9.295035 -0.006283 8.966076 9.292578 -0.264112 -0.000003 -0.000001 -0.000000 0.000001 0.000001 -4.049384 -10.228178 0.180238 -5.790436 -5.896930 5.306853 18.027881 -3.539622 26.667707 -2.048692 -0.000012 0.000002 -0.000000 -0.000001 0.000001 
-0.984510 12.491821 2.503319 -86.994665 -3.542804 0.148758 0.120576 1.982426 -2.550746 -2.907432 0.711924 -0.015636 -2.905069 0.739809 0.007179 4.307413 0.350406 0.205769 4.953257 2.471217 10.457156 -0.000000 -0.000000 -0.000001 1.557138 -15.372679 -0.487012 21.073843 -0.909089 -73.013343 0.000031 -137.569121 0.000042 -18.003105 18.362187 -44.124391 0.030458 3.838088 4.550894 0.593976 2.572269 -26.001156 0.143137 -1.288406 12.677977 0.000001 0.000000 -0.000000 -7.323182 -16.840175 14.435407 7.558170 31.509544 -3.040776 -10.327319 16.515338 14.878078 0.000001 -0.000001 0.000003 0.541238 6.785678 0.070815 17.227486 6.521284 66.843674 0.000011 133.065336 0.000001 -16.819718 -11.833558 48.893872 -19.372331 9.812723 -17.628150 16.805757 -33.149114 6.482054 3.930029 -4.675017 -18.270498 0.000001 0.000002 -0.000001 -0.578706 -1.290233 19.415299 -0.000000 -0.000000 0.000007 0.000370 -0.059105 0.725570 0.000000 -0.000000 -0.000000 -23.236788 15.656411 -9.367315 24.252680 -5.950060 -9.302666 -0.015996 8.913356 9.310420 -0.258129 -0.000001 -0.000007 0.000000 -0.000001 0.000000 -3.995592 -10.227081 0.180317 -5.830839 -5.943800 5.300325 17.948571 -3.533984 26.722246 -1.995145 0.000001 0.000003 -0.000001 0.000000 0.000001 
